<?xml version="1.0" encoding="utf-8"?>
<!-- Generator: Adobe Illustrator 24.0.3, SVG Export Plug-In . SVG Version: 6.00 Build 0)  -->
<svg version="1.1" id="Layer_1" xmlns="http://www.w3.org/2000/svg" xmlns:xlink="http://www.w3.org/1999/xlink" x="0px" y="0px"
	 viewBox="0 0 1920 230" style="enable-background:new 0 0 1920 230;" xml:space="preserve">
<style type="text/css">
	.st0{fill:#D6D1CA;}
</style>
<g>
	<path class="st0" d="M1633.24,116.25l-0.81,6.54c-0.11,0.93,0.02,1.59,0.4,2.02c0.4,0.45,1.1,0.84,2.15,0.84h1.74
		c2.38,0,3.55-2.21,3.55-2.21l-0.52,4.03h-7.57l-0.23,2.25l8.76,0c1.72,0,3.51-0.31,3.79-2.63l1.63-13.61h-9.59
		C1634.46,113.48,1633.45,114.34,1633.24,116.25z M1637.77,117.04c0.1-0.86,0.61-1.66,1.81-1.66c0.49-0.01,1.65,0,1.65,0
		s-0.17,1.64-0.21,2l-0.51,4.08c0,0-0.92,1.97-3.01,1.97c-0.49,0-0.52,0-0.52,0L1637.77,117.04z"/>
	<path class="st0" d="M1648.37,116.25l-0.81,6.54c-0.11,0.93,0.02,1.59,0.4,2.02c0.4,0.45,1.1,0.84,2.15,0.84h1.74
		c2.38,0,3.55-2.21,3.55-2.21l-0.52,4.03h-7.57l-0.23,2.25l8.76,0c1.72,0,3.51-0.31,3.79-2.63l1.63-13.61h-9.59
		C1649.59,113.48,1648.58,114.34,1648.37,116.25z M1652.9,117.04c0.1-0.86,0.61-1.66,1.81-1.66c0.49-0.01,1.65,0,1.65,0
		s-0.17,1.64-0.21,2l-0.51,4.08c0,0-0.92,1.97-3.01,1.97c-0.49,0-0.52,0-0.52,0L1652.9,117.04z"/>
	<path class="st0" d="M1920,193.66v-0.52l-117.83-36.37L1920,120.42v-0.52l-117.83-36.37L1920,47.18v-0.52l-118.6-36.61l-0.07-0.02
		l-118.67,36.63l-91.66-36.64l-91.66,36.64l-118.59-36.61l-0.07-0.02l-118.67,36.63l-91.66-36.64l-91.67,36.64L960.07,10.04
		L960,10.02L841.33,46.65l-91.66-36.64l-91.66,36.64L539.41,10.04l-0.07-0.02L420.67,46.65l-91.66-36.64l-91.66,36.64L118.75,10.04
		l-0.07-0.02L0,46.66v0.52l117.83,36.34L0,119.9v0.52l117.83,36.34L0,193.13v0.52L117.83,230h1.7l117.82-36.34L328.33,230h1.35
		l90.99-36.34L538.49,230h1.7l117.82-36.34L748.99,230h1.35l90.99-36.34L959.15,230h1.7l117.82-36.34l90.99,36.34h1.35l90.99-36.34
		L1379.81,230h1.7l117.82-36.34l90.99,36.34h1.35l90.99-36.34L1800.47,230h1.7L1920,193.66z M1914.65,192.01l-113.28-23.99
		l-0.05-0.01l-113.34,24l113.34-34.99L1914.65,192.01z M1801.32,156.5l-113.35-34.96l113.29,23.96l0.05,0.01l113.35-23.97
		L1801.32,156.5z M1801.32,145l-117.47-24.84l117.47-24.87l117.47,24.87L1801.32,145z M1914.66,118.77l-113.29-23.99l-0.05-0.01
		l-113.35,24l113.35-34.99L1914.66,118.77z M1801.32,83.26L1687.97,48.3l113.3,23.96l0.05,0.01l113.36-23.97L1801.32,83.26z
		 M1801.32,10.55l113.33,34.98l-113.28-23.99l-0.05-0.01l-113.34,24L1801.32,10.55z M1801.32,22.04l117.47,24.87l-117.47,24.84
		l-117.47-24.84L1801.32,22.04z M1590.99,10.55l87.43,34.95l-87.37-23.95l-0.07-0.02l-87.43,23.97L1590.99,10.55z M1500.4,46.89
		l90.59-24.84l90.59,24.84l-0.15,0.03l0.15,0.03l-90.59,24.81l-90.59-24.81l0.15-0.03L1500.4,46.89z M1678.45,48.33l-87.45,34.93
		l-87.45-34.93l87.39,23.93l0.07,0.02L1678.45,48.33z M1380.66,10.55l113.33,34.98l-113.28-23.99l-0.05-0.01l-113.34,24
		L1380.66,10.55z M1380.66,22.04l117.47,24.87l-117.47,24.84l-117.47-24.84L1380.66,22.04z M1267.32,121.54l113.29,23.96l0.05,0.01
		l113.35-23.97l-113.35,34.96L1267.32,121.54z M1493.99,192.01l-113.28-23.99l-0.05-0.01l-113.34,24l113.34-34.99L1493.99,192.01z
		 M1380.66,145l-117.47-24.84l117.47-24.87l117.47,24.87L1380.66,145z M1380.71,94.78l-0.05-0.01l-113.35,24l113.35-34.99
		L1494,118.77L1380.71,94.78z M1267.31,48.3l113.3,23.96l0.05,0.01l113.36-23.97l-113.36,34.96L1267.31,48.3z M1262,47.18
		l117.82,36.34l-117.82,36.37l-90.99-36.37L1262,47.18z M1260.92,120.19L1170.33,145l-90.59-24.81l0.15-0.03l-0.15-0.03l90.59-24.84
		l90.59,24.84l-0.15,0.03L1260.92,120.19z M1082.89,121.57l87.38,23.93l0.07,0.02l87.45-23.95l-87.45,34.92L1082.89,121.57z
		 M1257.76,191.98l-87.37-23.95l-0.07-0.02l-87.43,23.97l87.43-34.95L1257.76,191.98z M1257.77,118.74l-87.37-23.96l-0.07-0.02
		l-87.44,23.97l87.44-34.95L1257.77,118.74z M1082.88,48.33l87.39,23.93l0.07,0.02l87.45-23.95l-87.45,34.93L1082.88,48.33z
		 M1170.33,10.55l87.43,34.95l-87.37-23.95l-0.07-0.02L1082.9,45.5L1170.33,10.55z M1079.74,46.89l90.59-24.84l90.59,24.84
		l-0.15,0.03l0.15,0.03l-90.59,24.81l-90.59-24.81l0.15-0.03L1079.74,46.89z M1078.67,47.18l90.99,36.34l-90.99,36.37L960.85,83.52
		L1078.67,47.18z M846.65,121.54l113.29,23.96l0.05,0.01l113.35-23.97L960,156.5L846.65,121.54z M1073.33,192.01l-113.28-23.99
		l-0.05-0.01l-113.34,24L960,157.02L1073.33,192.01z M960,145l-117.47-24.84L960,95.28l117.47,24.87L960,145z M1073.34,118.77
		L960.05,94.78L960,94.77l-113.35,24L960,83.78L1073.34,118.77z M846.64,48.3l113.3,23.96l0.05,0.01l113.36-23.97L960,83.26
		L846.64,48.3z M960,10.55l113.33,34.98L960.05,21.54L960,21.53l-113.34,24L960,10.55z M960,22.04l117.47,24.87L960,71.76
		L842.53,46.92L960,22.04z M841.33,47.18l117.82,36.34l-117.82,36.37l-90.99-36.37L841.33,47.18z M840.26,120.19L749.67,145
		l-90.59-24.81l0.15-0.03l-0.15-0.03l90.59-24.84l90.59,24.84l-0.15,0.03L840.26,120.19z M662.22,121.57l87.38,23.93l0.07,0.02
		l87.45-23.95l-87.45,34.92L662.22,121.57z M837.1,191.98l-87.37-23.95l-0.07-0.02l-87.44,23.97l87.44-34.95L837.1,191.98z
		 M837.11,118.74l-87.38-23.96l-0.07-0.02l-87.44,23.97l87.44-34.95L837.11,118.74z M662.22,48.33l87.39,23.93l0.07,0.02
		l87.45-23.95l-87.45,34.93L662.22,48.33z M749.67,10.55L837.1,45.5l-87.37-23.95l-0.07-0.02L662.23,45.5L749.67,10.55z
		 M749.67,22.05l90.59,24.84l-0.15,0.03l0.15,0.03l-90.59,24.81l-90.59-24.81l0.15-0.03l-0.15-0.03L749.67,22.05z M658.01,47.18
		l90.99,36.34L658,119.89L540.19,83.52L658.01,47.18z M425.99,121.54l113.29,23.96l0.05,0.01l113.35-23.97L539.34,156.5
		L425.99,121.54z M652.67,192.01l-113.28-23.99l-0.05-0.01l-113.34,24l113.34-34.99L652.67,192.01z M539.34,145l-117.47-24.84
		l117.47-24.87l117.47,24.87L539.34,145z M652.68,118.77L539.39,94.78l-0.05-0.01l-113.35,24l113.35-34.99L652.68,118.77z
		 M425.98,48.3l113.3,23.96l0.05,0.01L652.69,48.3L539.34,83.26L425.98,48.3z M539.34,10.55l113.33,34.98L539.39,21.54l-0.05-0.01
		L426,45.53L539.34,10.55z M539.34,22.04l117.47,24.87L539.34,71.76L421.87,46.92L539.34,22.04z M420.67,47.18l117.82,36.34
		l-117.82,36.37l-90.99-36.37L420.67,47.18z M419.6,120.19L329.01,145l-90.59-24.81l0.15-0.03l-0.15-0.03l90.59-24.84l90.59,24.84
		l-0.15,0.03L419.6,120.19z M241.56,121.57l87.38,23.93l0.07,0.02l87.45-23.95l-87.45,34.92L241.56,121.57z M416.44,191.98
		l-87.37-23.95l-0.07-0.02l-87.43,23.97l87.43-34.95L416.44,191.98z M416.45,118.74l-87.38-23.96l-0.07-0.02l-87.44,23.97
		l87.44-34.95L416.45,118.74z M241.55,48.33l87.39,23.93l0.07,0.02l87.45-23.95l-87.45,34.93L241.55,48.33z M329.01,10.55
		l87.43,34.95l-87.37-23.95l-0.07-0.02L241.57,45.5L329.01,10.55z M329.01,22.05l90.59,24.84l-0.15,0.03l0.15,0.03l-90.59,24.81
		l-90.59-24.81l0.15-0.03l-0.15-0.03L329.01,22.05z M237.34,47.18l90.99,36.34l-90.99,36.37L119.53,83.52L237.34,47.18z
		 M118.68,10.55l113.33,34.98L118.73,21.54l-0.05-0.01l-113.34,24L118.68,10.55z M118.68,22.04l117.47,24.87L118.68,71.76
		L1.21,46.92L118.68,22.04z M5.32,48.3l113.3,23.96l0.05,0.01L232.03,48.3L118.68,83.26L5.32,48.3z M118.68,83.78l113.34,34.99
		L118.73,94.78l-0.05-0.01l-113.35,24L118.68,83.78z M118.68,95.28l117.47,24.87L118.68,145L1.21,120.16L118.68,95.28z M5.33,121.54
		l113.29,23.96l0.05,0.01l113.35-23.97L118.68,156.5L5.33,121.54z M118.68,157.02l113.33,34.98l-113.28-23.99l-0.05-0.01l-113.34,24
		L118.68,157.02z M118.68,229.74L5.32,194.78l113.3,23.96l0.05,0.01l113.36-23.97L118.68,229.74z M118.68,218.24L1.21,193.4
		l117.47-24.87l117.47,24.87L118.68,218.24z M237.34,193.13l-117.82-36.37l117.82-36.34l90.99,36.34L237.34,193.13z M329.01,229.73
		l-87.45-34.93l87.39,23.93l0.07,0.02l87.45-23.95L329.01,229.73z M419.6,193.43l-90.59,24.81l-90.59-24.81l0.15-0.03l-0.15-0.03
		l90.59-24.84l90.59,24.84l-0.15,0.03L419.6,193.43z M420.67,193.13l-90.99-36.37l90.99-36.34l117.82,36.34L420.67,193.13z
		 M539.34,229.74l-113.36-34.96l113.3,23.96l0.05,0.01l113.36-23.97L539.34,229.74z M539.34,218.24L421.87,193.4l117.47-24.87
		l117.47,24.87L539.34,218.24z M658.01,193.13l-117.82-36.37l117.82-36.34l90.99,36.34L658.01,193.13z M749.67,229.73l-87.45-34.93
		l87.39,23.93l0.07,0.02l87.45-23.95L749.67,229.73z M840.26,193.43l-90.59,24.81l-90.59-24.81l0.15-0.03l-0.15-0.03l90.59-24.84
		l90.59,24.84l-0.15,0.03L840.26,193.43z M841.33,193.13l-90.99-36.37l90.99-36.34l117.82,36.34L841.33,193.13z M960,229.74
		l-113.36-34.96l113.3,23.96l0.05,0.01l113.36-23.97L960,229.74z M960,218.24L842.53,193.4L960,168.52l117.47,24.87L960,218.24z
		 M1078.67,193.13l-117.82-36.37l117.82-36.34l90.99,36.34L1078.67,193.13z M1170.33,229.73l-87.45-34.93l87.39,23.93l0.07,0.02
		l87.45-23.95L1170.33,229.73z M1260.92,193.43l-90.59,24.81l-90.59-24.81l0.15-0.03l-0.15-0.03l90.59-24.84l90.59,24.84l-0.15,0.03
		L1260.92,193.43z M1261.99,193.13l-90.99-36.37l90.99-36.34l117.82,36.34L1261.99,193.13z M1380.66,229.74l-113.35-34.96
		l113.3,23.96l0.05,0.01l113.36-23.97L1380.66,229.74z M1380.66,218.24l-117.47-24.84l117.47-24.87l117.47,24.87L1380.66,218.24z
		 M1590.99,229.73l-87.45-34.93l87.39,23.93l0.07,0.02l87.45-23.95L1590.99,229.73z M1681.59,193.43l-90.59,24.81l-90.59-24.81
		l0.15-0.03l-0.15-0.03l90.59-24.84l90.59,24.84l-0.15,0.03L1681.59,193.43z M1503.56,191.98l87.43-34.95l87.43,34.95l-87.37-23.95
		l-0.07-0.02L1503.56,191.98z M1682.66,193.13l-91.66-36.64l-91.66,36.64l-117.82-36.37l117.9-36.36l1.14-0.24l-1.15-0.24
		l-117.89-36.39l117.82-36.34l91.57,36.57l0.09,0.04l91.66-36.61l117.82,36.34l-117.9,36.39l-1.14,0.24l1.15,0.24l117.89,36.36
		L1682.66,193.13z M1801.32,168.52l117.47,24.87l-117.47,24.84l-117.47-24.84L1801.32,168.52z M1801.27,218.74l0.05,0.01
		l113.36-23.97l-113.36,34.96l-113.36-34.96L1801.27,218.74z"/>
	<polygon class="st0" points="1579.5,125.65 1584.15,125.65 1585.61,113.48 1580.97,113.48 	"/>
	<path class="st0" d="M1545.06,113.48h-6.31c-1.58,0-3.28,0.27-3.59,2.8l-0.81,6.65c-0.12,0.95,0,1.62,0.38,2.06
		c0.42,0.48,1.16,0.66,2.39,0.66l6.28,0c2.2,0,3.29-0.85,3.54-2.77l0.81-6.65c0.12-0.95-0.01-1.61-0.38-2.03
		C1546.98,113.75,1546.24,113.48,1545.06,113.48z M1542.96,117.47l-0.52,4.2c-0.08,0.61-0.26,1.78-1.87,1.78c-0.56,0-1.7,0-1.7,0
		l0.86-6.4c0.03-0.42,0.22-1.66,1.8-1.66c0.51,0,1.68,0,1.68,0S1543.05,116.86,1542.96,117.47z"/>
	<polygon class="st0" points="1535.35,110.56 1530.42,110.56 1524.17,116.71 1524.91,110.56 1520.25,110.56 1518.45,125.65 
		1523.07,125.65 1523.86,119.17 1527.19,125.65 1532.46,125.65 1528.19,117.67 	"/>
	<path class="st0" d="M1560.12,113.48h-6.09c-2.42,0-3.46,0.83-3.7,2.8l-0.84,6.65c-0.12,0.93,0.01,1.6,0.4,2.03
		c0.42,0.48,1.15,0.69,2.35,0.69h6.4c2.18,0,3.21-0.82,3.48-2.74l0.09-0.68l-4.64,0c-0.28,1.04-1.24,1.21-1.79,1.21
		c-0.51,0-1.67,0-1.67,0l0.33-2.81h7.95l0.54-4.43c0.11-0.91-0.02-1.57-0.4-1.99C1562.11,113.73,1561.34,113.48,1560.12,113.48z
		 M1558,118.53l-3.32,0.03l0.2-1.52c0.12-1.01,0.83-1.66,1.8-1.66c0.5,0,1.71,0,1.71,0L1558,118.53z"/>
	<path class="st0" d="M1613,113.48h-6.71c-2.03,0-3.04,0.86-3.28,2.77l-0.22,1.66c-0.12,1.03,0.01,1.75,0.39,2.19
		c0.58,0.66,1.74,0.68,2.86,0.7l4.41,0l-0.09,0.7c-0.04,0.47-0.3,1.94-2.05,1.94c-0.47,0-1.58,0-1.58,0l0.14-1.21h-4.73l-0.07,0.64
		c-0.12,0.94,0,1.6,0.38,2.04c0.56,0.64,1.63,0.74,2.59,0.74h6.2c2.23,0,3.37-0.95,3.59-2.86l0.2-1.63c0.11-0.86,0-1.49-0.36-1.91
		c-0.58-0.69-1.76-0.79-2.79-0.82l-4.56,0l0.15-1.37c0.16-1.25,1.08-1.69,1.88-1.69c0.25,0,1.56,0,1.56,0l-0.14,1.66h4.67l0.13-0.87
		c0.11-0.93-0.03-1.6-0.43-2.04C1614.73,113.68,1614.03,113.46,1613,113.48z"/>
	<path class="st0" d="M1627.95,113.48h-6.09c-2.42,0-3.46,0.83-3.7,2.8l-0.84,6.65c-0.12,0.93,0.01,1.6,0.4,2.03
		c0.42,0.48,1.15,0.69,2.35,0.69h6.4c2.18,0,3.21-0.82,3.48-2.74l0.09-0.68l-4.64,0c-0.28,1.04-1.24,1.21-1.79,1.21
		c-0.51,0-1.67,0-1.67,0l0.33-2.81h7.95l0.54-4.43c0.11-0.91-0.02-1.57-0.4-1.99C1629.93,113.73,1629.16,113.48,1627.95,113.48z
		 M1625.83,118.53l-3.32,0.03l0.2-1.52c0.12-1.01,0.83-1.66,1.8-1.66c0.5,0,1.71,0,1.71,0L1625.83,118.53z"/>
	<path class="st0" d="M1575.52,113.48h-1.07c-1.44,0-2.46,0.72-2.46,0.72l-1.74,1.39l0.25-2.1h-4.65l-1.49,12.17h4.65l0.99-8.02
		c0,0,1.05-0.87,1.75-1.37c0.7-0.51,1.8-0.65,1.8-0.65s-0.2,1.55-0.24,1.91l-0.99,8.14h4.65l1.13-9.42
		c0.12-0.96-0.01-1.63-0.39-2.06C1577.32,113.72,1576.62,113.48,1575.52,113.48z"/>
	<path class="st0" d="M1587.81,116.25l-0.81,6.54c-0.11,0.93,0.02,1.59,0.4,2.02c0.4,0.45,1.1,0.84,2.15,0.84h1.74
		c2.38,0,3.55-2.21,3.55-2.21l-0.52,4.03h-7.57l-0.23,2.25l8.76,0c1.72,0,3.51-0.31,3.79-2.63l1.63-13.61h-9.59
		C1589.03,113.48,1588.02,114.34,1587.81,116.25z M1592.34,117.04c0.1-0.86,0.61-1.66,1.81-1.66c0.49-0.01,1.65,0,1.65,0
		s-0.17,1.64-0.21,2l-0.51,4.08c0,0-0.92,1.97-3.01,1.97c-0.49,0-0.52,0-0.52,0L1592.34,117.04z"/>
</g>
</svg>
