<?xml version="1.0" encoding="utf-8"?>
<!-- Generator: Adobe Illustrator 24.0.3, SVG Export Plug-In . SVG Version: 6.00 Build 0)  -->
<svg version="1.1" id="Layer_1" xmlns="http://www.w3.org/2000/svg" xmlns:xlink="http://www.w3.org/1999/xlink" x="0px" y="0px"
	 viewBox="0 0 200 27" style="enable-background:new 0 0 200 27;" xml:space="preserve">
<style type="text/css">
	.st0{fill:#D6D1CA;}
</style>
<g>
	<polygon class="st0" points="7.58,12.14 12.25,21.22 19.63,21.22 13.65,10.03 23.68,0.08 16.77,0.08 8.02,8.69 9.05,0.08 
		2.52,0.08 0,21.22 6.48,21.22 	"/>
	<path class="st0" d="M26.16,21.22l8.8,0c3.08,0,4.61-1.2,4.95-3.88l1.14-9.31c0.16-1.33-0.01-2.26-0.53-2.85
		c-0.56-0.63-1.59-1.01-3.24-1.01h-8.84c-2.21,0-4.6,0.38-5.03,3.92l-1.14,9.32c-0.17,1.33,0,2.27,0.54,2.89
		C23.39,20.96,24.43,21.22,26.16,21.22z M29.81,9.15c0.05-0.58,0.31-2.32,2.52-2.32c0.72,0,2.35,0,2.35,0s-0.22,2.08-0.35,2.92
		l-0.73,5.88c-0.12,0.85-0.36,2.49-2.61,2.49c-0.78,0-2.38,0-2.38,0L29.81,9.15z"/>
	<path class="st0" d="M47.34,21.22h8.96c3.05,0,4.5-1.15,4.87-3.84l0.12-0.95l-6.5,0c-0.39,1.45-1.74,1.69-2.5,1.69
		c-0.71,0-2.33,0-2.33,0l0.46-3.94h11.14l0.75-6.2c0.15-1.28-0.03-2.19-0.56-2.79c-0.6-0.67-1.67-1.02-3.37-1.02h-8.53
		c-3.39,0-4.85,1.16-5.19,3.92l-1.18,9.32c-0.16,1.31,0.02,2.24,0.56,2.85C44.64,20.92,45.66,21.22,47.34,21.22z M51.04,9.15
		c0.17-1.41,1.16-2.32,2.52-2.32c0.7,0,2.39,0,2.39,0l-0.53,4.41l-4.66,0.04L51.04,9.15z"/>
	<path class="st0" d="M142.36,21.22h8.96c3.05,0,4.5-1.15,4.87-3.84l0.12-0.95l-6.5,0c-0.39,1.45-1.74,1.69-2.5,1.69
		c-0.71,0-2.33,0-2.33,0l0.46-3.94h11.14l0.75-6.2c0.15-1.28-0.03-2.19-0.56-2.79c-0.6-0.67-1.67-1.02-3.37-1.02h-8.53
		c-3.39,0-4.85,1.16-5.19,3.92l-1.18,9.32c-0.16,1.31,0.02,2.24,0.56,2.85C139.66,20.92,140.68,21.22,142.36,21.22z M146.06,9.15
		c0.17-1.41,1.16-2.32,2.52-2.32c0.7,0,2.39,0,2.39,0l-0.53,4.41l-4.66,0.04L146.06,9.15z"/>
	<path class="st0" d="M72.22,9.99c0,0,1.48-1.21,2.45-1.92c0.98-0.71,2.53-0.91,2.53-0.91s-0.28,2.17-0.33,2.67l-1.38,11.4h6.52
		l1.58-13.2c0.17-1.34-0.01-2.28-0.54-2.89c-0.56-0.63-1.53-0.96-3.07-0.96h-1.5c-2.01,0-3.45,1.01-3.45,1.01l-2.44,1.94l0.35-2.95
		h-6.51l-2.09,17.05h6.52L72.22,9.99z"/>
	<polygon class="st0" points="85.54,21.22 92.05,21.22 94.09,4.17 87.6,4.17 	"/>
	<path class="st0" d="M101.77,4.17c-2.88,0-4.3,1.2-4.6,3.88l-1.14,9.16c-0.16,1.3,0.02,2.23,0.56,2.84
		c0.56,0.63,1.55,1.17,3.02,1.17h2.44c3.34,0,4.97-3.1,4.97-3.1l-0.73,5.64H95.3l-0.32,3.16l12.64,0c2.41,0,4.92-0.44,5.31-3.69
		l2.28-19.07H101.77z M108.06,9.64l-0.71,5.72c0,0-1.28,2.76-4.22,2.76c-0.69,0-0.72,0-0.72,0l1.11-8.97
		c0.14-1.2,0.86-2.32,2.53-2.32c0.69-0.01,2.31,0,2.31,0S108.12,9.14,108.06,9.64z"/>
	<path class="st0" d="M165.41,4.17c-2.88,0-4.3,1.2-4.6,3.88l-1.14,9.16c-0.16,1.3,0.02,2.23,0.56,2.84
		c0.56,0.63,1.55,1.17,3.02,1.17h2.44c3.34,0,4.97-3.1,4.97-3.1l-0.73,5.64h-10.98l-0.32,3.16l12.64,0c2.41,0,4.92-0.44,5.31-3.69
		l2.28-19.07H165.41z M171.71,9.64L171,15.36c0,0-1.28,2.76-4.22,2.76c-0.69,0-0.72,0-0.72,0l1.11-8.97
		c0.14-1.2,0.86-2.32,2.53-2.32c0.69-0.01,2.31,0,2.31,0S171.76,9.14,171.71,9.64z"/>
	<path class="st0" d="M186.56,4.17c-2.88,0-4.3,1.2-4.6,3.88l-1.14,9.16c-0.16,1.3,0.02,2.23,0.56,2.84
		c0.56,0.63,1.55,1.17,3.02,1.17h2.44c3.34,0,4.97-3.1,4.97-3.1l-0.73,5.64H180.1l-0.32,3.16l12.64,0c2.41,0,4.92-0.44,5.31-3.69
		L200,4.17H186.56z M192.85,9.64l-0.71,5.72c0,0-1.28,2.76-4.22,2.76c-0.69,0-0.72,0-0.72,0l1.11-8.97c0.14-1.2,0.86-2.32,2.53-2.32
		c0.69-0.01,2.31,0,2.31,0S192.91,9.14,192.85,9.64z"/>
	<path class="st0" d="M121.33,21.22h8.69c3.12,0,4.72-1.32,5.03-4l0.27-2.28c0.16-1.21,0-2.08-0.5-2.67
		c-0.82-0.96-2.46-1.1-3.92-1.15l-6.39,0l0.21-1.92c0.23-1.75,1.51-2.37,2.63-2.37c0.35,0,2.18,0,2.18,0l-0.2,2.32h6.55l0.18-1.22
		c0.15-1.3-0.05-2.24-0.6-2.85c-0.58-0.64-1.56-0.94-3.01-0.92h-9.4c-2.84,0-4.26,1.2-4.6,3.88l-0.31,2.32
		c-0.17,1.44,0.01,2.45,0.55,3.07c0.81,0.93,2.44,0.95,4.01,0.97l6.18,0l-0.12,0.98c-0.05,0.65-0.42,2.72-2.87,2.72
		c-0.66,0-2.21,0-2.21,0l0.2-1.69h-6.63l-0.09,0.89c-0.17,1.31,0,2.25,0.53,2.85C118.48,21.07,119.99,21.22,121.33,21.22z"/>
</g>
</svg>
