<?xml version="1.0" encoding="UTF-8" standalone="no"?>
<svg
   xmlns:dc="http://purl.org/dc/elements/1.1/"
   xmlns:cc="http://creativecommons.org/ns#"
   xmlns:rdf="http://www.w3.org/1999/02/22-rdf-syntax-ns#"
   xmlns:svg="http://www.w3.org/2000/svg"
   xmlns="http://www.w3.org/2000/svg"
   viewBox="0 0 2275.72 365.21332"
   height="365.21332"
   width="2275.72"
   xml:space="preserve"
   id="svg2"
   version="1.1"><metadata
     id="metadata8"><rdf:RDF><cc:Work
         rdf:about=""><dc:format>image/svg+xml</dc:format><dc:type
           rdf:resource="http://purl.org/dc/dcmitype/StillImage" /><dc:title></dc:title></cc:Work></rdf:RDF></metadata><defs
     id="defs6" /><g
     transform="matrix(1.3333333,0,0,-1.3333333,0,365.21333)"
     id="g10"><g
       style="fill:#ffffff"
       transform="scale(0.1)"
       id="g12"><path
         id="path14"
         style="fill:#ffffff;fill-opacity:1;fill-rule:nonzero;stroke:none"
         d="m 9560.09,1927 c -125.01,137.6 -327.62,196.66 -451.7,192.52 -97.45,-3.25 -1445.02,2.45 -1572.5,5 -112.88,2.26 -309.01,-50.07 -456.03,-205.95 -111.37,-103.53 -201.37,-260.26 -218.9,-489.21 -13.16,-171.9 40.36,-281.6 118.52,-351.71 157.15,-180.119 463.91,-149.38 463.91,-149.38 l 1522.5,-1.25 c 0,0 133.55,5.07 132.5,140 -0.97,124.69 -128.75,131.25 -128.75,131.25 0,0 -1416.12,0.05 -1521.18,-1.41 -95.49,-1.33 -200.83,2.99 -268.25,55.11 -38.57,49.7 -53.48,127.69 -26.75,249.89 23.85,108.99 66.35,187.12 116.86,243.14 104.84,94.16 232.91,108.68 303.14,109.36 130,1.25 1123.68,1.41 1461.18,-2.34 155.74,-1.73 261.19,-35.44 326.11,-89.98 50.75,-61.17 62.86,-141.16 43.89,-230.02 -16.46,-77.1 -103.75,-392.5 -268.75,-867.5 -41.73,-120.129 -69.3,-211.168 -118.79,-271.399 -4.55,-3.742 -8.73,-7.891 -13.64,-11.262 -131.25,-90 -466.87,-95 -466.87,-95 0,0 -4240.7,-6.089 -4405.7,-3.589 -160.62,2.429 -299.29,41.609 -371.23,103.812 -52.48,62.5 -69.05,137.09 -60.65,174.309 39.38,174.379 328.13,955.629 328.13,955.629 0,0 41.99,110.98 135,235 3.21,4.28 6.81,7.98 10.22,11.96 107.1,88.98 266.03,75.54 266.03,75.54 0,0 1388.68,7.61 1558.75,7.5 104.98,-0.07 186.37,-13.07 237.85,-51.49 43,-58.01 44.62,-153.25 -6.53,-306.17 -23.14,-69.19 -56.62,-123.81 -95.57,-167.04 -165.23,-150.5 -399.43,-130.3 -399.43,-130.3 l -1593.82,1.25 c 0,0 -125.61,-6.79 -133.13,-127.5 -8.87,-142.489 145,-142.442 145,-142.442 l 1691.95,3.692 c 0,0 280.61,-5.231 478.83,207.21 95.84,89.25 177.74,223.21 208.67,425.13 33.45,218.31 -25.17,346.95 -111.98,422.56 -143.24,161.24 -404.34,133.85 -404.34,133.85 h -1702.5 c 0,0 -123.01,-4.77 -262.5,-105 -24.04,-17.27 -46.66,-38.15 -67.86,-61.12 -145.89,-134.08 -232.14,-385.13 -232.14,-385.13 l -322.5,-926.25 c 0,0 -91.17,-208.879 129.93,-415.5 20.36,-21.911 43.87,-43.911 71.32,-65.75 220,-175.0005 676.25,-145.0005 676.25,-145.0005 h 4411.25 c 0,0 351.79,5.5118 512.17,186.1525 41.53,36.879 74.77,82.34 92.9,138.687 214.78,667.541 187.64,608.493 347.5,1092.501 75.37,228.17 7.17,390.78 -108.37,497.64" /><path
         id="path16"
         style="fill:#ffffff;fill-opacity:1;fill-rule:nonzero;stroke:none"
         d="m 3397.15,2586.2 c -85.77,95.15 -221.68,154.84 -416.21,150.35 -175.6,-4.05 -1305,2.5 -1620,2.5 -141.51,0 -278.77,-10.47 -416.237,-157.59 C 836.605,2480.9 728.574,2301.63 618.441,1981.55 386.77,1308.25 3.44141,174.051 3.44141,174.051 c 0,0 -29.62111,-128.1799 84.94919,-167.03147 C 194.32,-28.8906 261.266,83.5391 268.441,104.051 c 64.426,184.07 173.629,501.769 276.2,799.219 150,435 277.027,821.21 361.3,1063.28 64.477,185.2 129.009,323 209.169,411 59,53.06 126.58,81.58 208.33,84 422.5,12.5 1295.68,14.16 1490,2.5 76.89,-4.61 288.03,6.01 404.33,-89.89 51.28,-62.23 69.82,-157.66 20.67,-305.11 -33.12,-99.38 -77.54,-172.16 -126.65,-225.94 -107.69,-98.22 -231.13,-115.95 -309.6,-117.81 -491.14,-11.65 -780.95,21.43 -924.63,-144.88 -57.52,-49.89 -96.51,-122.49 -119.12,-228.87 -41.16,-193.67 58.05,-343.01 78.7,-385.78 157.5,-326.25 162.55,-269.84 481.3,-881.0903 12.27,-23.5313 89.1,-109.0977 180,-69.3789 89.76,39.2187 94.89,118.0972 68.56,182.7502 -104.63,256.98 -512.08,866.669 -537.31,1011.629 -13.35,76.73 12.32,149.5 43.27,191.28 93.54,67.07 305.13,35.84 745.48,38.09 191.16,0.98 352.45,86.6 471.37,212.28 271.58,256.53 349.98,716.98 107.34,934.87" /><path
         id="path18"
         style="fill:#ffffff;fill-opacity:1;fill-rule:nonzero;stroke:none"
         d="m 14450.9,1849.52 c 41.2,1.59 153.2,14.22 153.2,136.71 0,113.85 -119.4,133.76 -168.1,135.63 -240.7,9.26 -748.1,52.24 -997.3,-219.21 -48.5,-44.73 -89.2,-99.22 -119.1,-165.63 -32.3,-71.91 -203.2,-598.65 -358.7,-1072.5 -49.2,-149.739 -76.8,-232.622 -130.2,-294.098 -6.3,-5.453 -12.8,-10.832 -19.7,-16.063 -107.9,-80.859 -365,-85 -365,-85 0,0 -1886.3,-1.25 -2051.3,1.25 -161.1,2.442 -266,53.86 -336.1,116.981 -52.4,60.109 -70.99,126.14 -59.59,173.801 41.59,173.859 328.09,955.629 328.09,955.629 0,0 42,110.98 135,235 4.8,6.31 9.7,11.96 14.6,17.62 95.6,82.26 206.7,68.63 206.7,68.63 0,0 1542.5,9.93 1712.6,6.09 48.7,-1.1 88.7,-14.93 119.6,-38.81 49.5,-63.73 59.5,-167.38 22.9,-293.69 -25.5,-87.89 -64.7,-153.59 -109.3,-202.91 -135.8,-123.1 -303.2,-117.09 -303.2,-117.09 l -1686.4,1.41 c 0,0 -129.6,-16.64 -133.1,-127.5 -4.1,-132.79 139.8,-142.45 139.8,-142.45 l 1748.3,3.7 c 0,0 252.6,16.39 430.5,207.99 64.1,59.79 121.4,139.33 158.4,245.6 114,328.07 39.4,503.75 -66.2,597.82 -111.4,125.88 -282.7,137.34 -282.7,137.34 h -1822.5 c 0,0 -126.7,0.22 -262.5,-105 -18.2,-14.17 -36.1,-31.11 -53.3,-49.87 -138.9,-127.17 -246.7,-396.38 -246.7,-396.38 L 9734.71,653.109 c 0,0 -97.06,-223.668 131.34,-437.507 18.17,-19.582 38.74,-39.161 62.34,-58.582 203.81,-167.6606 676.21,-145.0005 676.21,-145.0005 h 1936.3 c 0,0 347.8,16.5196 504.6,192.8715 40.5,35.988 72.9,79.75 90.5,133.218 232.2,706.451 227.5,688.751 402.5,1206.251 20.9,61.77 51.2,112.12 88.5,153.38 216.1,194.81 611.6,143.56 823.9,151.78" /><g
         style="fill:#ffffff"
         transform="scale(1.04712)"
         id="g20"><path
           id="path22"
           style="fill:#ffffff;fill-opacity:1;fill-rule:nonzero;stroke:none"
           d="m 16183.4,1845.09 c -1.5,1.44 -20.1,20.48 -28.7,28.65 -179,169.51 -456,155.18 -456,155.18 h -1210.4 c 0,0 -130.2,-10.26 -131.4,-128.92 -1.1,-112.66 126.6,-131.31 126.6,-131.31 H 15682 c 0,0 201.3,-8.89 300.3,-89.66 76.9,-99.22 7.7,-239.82 7.7,-239.82 l -274.6,-775.941 c 0,0 -38.1,-162.504 -150.3,-320.08 -2,-2.816 -4.4,-5.259 -6.5,-7.916 -83.1,-66.421 -213.1,-63.709 -213.1,-63.709 l -1420.7,-4.622 c 0,0 -67.4,-4.107 -118.9,33.798 -33.7,45.87 -46,125.143 6.7,262.253 36.1,93.964 81,163.317 128,214.514 133.5,123.834 273.1,114.962 273.1,114.962 h 1342.9 c 0,0 132.1,6.256 136.8,127.131 4.9,126.61 -137.9,127.14 -137.9,127.14 h -1368.1 c 0,0 -211.7,13.73 -400.7,-187.182 -86.8,-81.824 -171.2,-205.46 -231.4,-392.983 -83.8,-261.574 -18,-395.353 60.6,-463.233 72,-83.8875 172.8,-96.63832 172.8,-96.63832 h 1611.6 c 0,0 174.6,-17.82048 327.2,146.02232 22.7,20.797 45.1,44.922 66.7,73.628 87,115.604 156.4,318.733 156.4,318.733 l 325.9,927.543 c 0,0 93.5,195.8 -93.1,372.46" /></g></g></g></svg>